<?xml version="1.0" standalone="no"?>
<!DOCTYPE svg PUBLIC "-//W3C//DTD SVG 20010904//EN"
 "http://www.w3.org/TR/2001/REC-SVG-20010904/DTD/svg10.dtd">
<svg version="1.0" xmlns="http://www.w3.org/2000/svg"
 width="260.000000pt" height="260.000000pt" viewBox="0 0 260.000000 260.000000"
 preserveAspectRatio="xMidYMid meet">
<metadata>
Created by potrace 1.14, written by Peter Selinger 2001-2017
</metadata>
<g transform="translate(0.000000,260.000000) scale(0.100000,-0.100000)"
fill="#000000" stroke="none">
<path d="M1685 2589 c-73 -10 -92 -15 -174 -43 -207 -72 -363 -210 -452 -401
-27 -56 -39 -92 -65 -190 -10 -36 -12 -255 -3 -261 5 -3 7 -9 4 -14 -7 -11 16
-97 45 -172 l22 -57 -506 -506 c-278 -278 -506 -509 -506 -512 0 -3 96 -102
213 -219 l213 -214 525 525 c472 473 526 525 549 519 14 -3 34 -8 45 -10 11
-2 31 -7 45 -10 36 -9 207 -10 261 -1 244 38 464 197 584 422 28 54 60 151 71
217 10 62 11 207 1 248 -17 69 -51 171 -59 176 -4 3 -16 -3 -26 -13 -27 -26
-87 -79 -167 -148 -39 -33 -72 -62 -75 -65 -3 -3 -41 -36 -85 -75 -44 -38 -82
-72 -85 -75 -3 -3 -35 -31 -72 -62 l-66 -58 -181 0 -181 0 0 181 0 180 289
289 290 290 -78 24 c-42 13 -97 28 -122 32 -61 9 -194 11 -254 3z"/>
</g>
</svg>
